<?xml version="1.0" encoding="UTF-8" standalone="no"?>
<svg xmlns="http://www.w3.org/2000/svg" xmlns:xlink="http://www.w3.org/1999/xlink" width="300" height="300.00009" version="1.0">
  <defs>
    <linearGradient id="a">
      <stop offset="0" stop-color="#ff0"/>
      <stop offset="1" stop-color="#fff"/>
    </linearGradient>
    <linearGradient xlink:href="#a" id="b" x1="269.48694" x2="32.240566" y1="306.04901" y2="-8.9282284" gradientTransform="translate(-.9656773 -.9656792) scale(1.00644)" gradientUnits="userSpaceOnUse"/>
  </defs>
  <g transform="translate(.00000575 .00014377)">
    <rect width="296.98068" height="296.98068" x="1.5096511" y="1.5096086" fill="url(#b)" stroke="#000" stroke-dashoffset="2.80080002" stroke-linecap="round" stroke-linejoin="round" stroke-width="3.01931357" rx="60" ry="60"/>
    <path d="M83.499301 162.95112c9.664361 0 17.499159-7.8348 17.499159-17.50001 0-9.66435-7.834798-17.49999-17.499159-17.49999-9.665208 0-17.500846 7.83564-17.500846 17.49999 0 9.66521 7.835638 17.50001 17.500846 17.50001z"/>
    <path d="M60.326471 168.30723c-5.723661 3.62059-23.584875 40.42016-23.584875 40.42016-4.914885 10.01632 7.656477 12.93109 11.986777 5.08909l15.513973-28.53255-2.371224 93.71479c0 9.67238 19.246402 9.38814 19.246402 0v-56.39311l3.226334.0057v56.39249c0 9.38817 19.390312 9.6673 19.390312-.00508l1.33182-98.37456 31.39571-25.27275c10.1866-8.19996 2.57238-18.48342-7.84526-10.70039l-27.81218 20.7785s-34.482573-.91465-40.477789 2.87771zM202.14419 62.146915c13.8059 0 25.00001-11.193692 25.00001-24.999694 0-13.806615-11.19411-25.000306-25.00001-25.000306-13.80711 0-24.99999 11.193691-24.99999 25.000306 0 13.806002 11.19288 24.999694 24.99999 24.999694z"/>
    <path d="m169.6962 101.66503.14803 171.64812c0 17.16976 27.15475 17.01284 27.15475-.39313l.01599-99.85929 5.28551-.04735-.01658 99.85984c0 17.40542 27.47155 17.84534 27.47155.43993l.01599-172.36775h4.77153v61.55382c0 14.77688 21.56605 14.77688 21.56605.26428V95.426785c0-18.101375-14.48928-28.761451-29.81349-28.761451h-42.9965c-10.19799 0-18.71776 2.713944-24.93531 10.972876l-34.36975 65.34811c-7.34783 12.9933 13.06715 20.52837 19.83819 8.0548l25.86404-49.37609z"/>
  </g>
</svg>