<?xml version="1.0" encoding="UTF-8" standalone="no"?>
<!-- Created with Inkscape (http://www.inkscape.org/) -->

<svg
   version="1.1"
   id="svg2"
   width="48"
   height="48"
   viewBox="0 0 48 48"
   xmlns="http://www.w3.org/2000/svg"
   xmlns:svg="http://www.w3.org/2000/svg">
  <defs
     id="defs6" />
  <g
     id="g8">
    <g
       id="g317"
       transform="translate(0.52034943,0.17612852)">
      <path
         style="fill:#000000"
         d="M 17.963443,46.646156 C 11.380614,44.156978 5.7707834,36.051811 5.7707834,29.03002 c 0,-1.976368 6.3058626,-2.951274 8.8516796,-1.368498 2.180402,1.355592 2.56385,1.258806 5.264844,-1.328911 2.841294,-2.722132 2.9478,-2.742848 4.317046,-0.839676 4.67183,6.493568 4.104726,6.25044 7.349509,3.150879 l 2.931642,-2.800434 3.693775,2.17938 c 3.341842,1.971735 3.630985,2.476743 3.034765,5.300434 C 39.00815,43.77029 27.618182,50.296921 17.963443,46.646156 Z m 11.49224,-1.765526 c 4.050661,-1.530446 8.088209,-5.718863 9.428914,-9.78124 1.054564,-3.195359 0.951126,-3.684139 -1.137579,-5.37547 -2.276643,-1.843513 -2.328217,-1.83085 -5.647919,1.38673 -3.252968,3.152901 -3.391188,3.190388 -4.758031,1.290416 -4.680141,-6.505605 -4.094846,-6.269106 -7.48927,-3.026178 l -3.067548,2.93064 -2.421658,-2.27503 c -5.5190076,-5.184839 -8.9359626,1.139493 -4.318012,7.99207 4.697272,6.970282 12.147429,9.602468 19.411103,6.858062 z M 27.73482,27.194248 c -0.01978,-0.4125 -1.128643,-2.087151 -2.46414,-3.721447 l -2.428177,-2.971447 -2.940311,2.816996 -2.940311,2.816996 -2.182207,-2.182207 C 13.232975,22.40644 11.894647,21.947328 10.184125,22.376642 7.3060554,23.098991 7.1383514,21.988205 9.2303004,16.058991 11.439273,9.7980915 16.533021,3.0252713 20.430652,1.1666206 c 3.307604,-1.57728658 3.669703,-1.56167618 7.161934,0.3087561 2.023009,1.0835191 5.144617,4.1639981 6.936908,6.8455087 3.133009,4.6874076 6.967744,15.2302416 5.920569,16.2774176 -0.278163,0.278163 -1.587611,-0.203111 -2.909884,-1.069497 -2.290221,-1.500611 -2.540103,-1.433325 -5.273856,1.420097 -2.806117,2.928955 -4.459442,3.748172 -4.531503,2.245345 z m 4.129514,-4.839628 c 2.320633,-2.223307 3.013681,-2.423351 4.899348,-1.414173 2.026136,1.084355 2.141481,0.994424 1.488287,-1.160372 -1.40417,-4.632155 -6.879818,-14.0042312 -9.28934,-15.8995611 -6.4302,-5.0579961 -14.215043,0.3751217 -18.683181,13.0391741 -1.4413026,4.085091 -1.4240306,4.235691 0.430178,3.750804 1.062474,-0.277843 2.896262,0.170385 4.075083,0.996063 1.982365,1.388503 2.362813,1.290937 5.066429,-1.299292 2.855313,-2.735563 2.958264,-2.755553 4.438268,-0.86177 0.833332,1.066315 1.973383,2.726255 2.533447,3.688755 1.342306,2.306827 1.844607,2.223172 5.041481,-0.839628 z"
         id="path170" />
      <path
         style="fill:#ffffff;stroke-width:0.126175"
         d="m 28.121242,24.606111 c -0.269856,-0.113466 -0.585154,-0.468319 -1.008523,-1.135048 -2.168616,-3.415171 -3.747937,-5.365361 -4.344288,-5.364452 -0.477726,7.57e-4 -1.027684,0.397477 -2.688475,1.939507 -1.855996,1.723274 -2.599492,2.301072 -3.103377,2.411744 -0.412007,0.09049 -0.93155,-0.123515 -2.592608,-1.067926 C 13.866568,21.095761 13.113458,20.801066 12.565696,20.67844 11.744894,20.49469 11.500799,20.489312 10.567917,20.63443 9.0515598,20.870322 9.0459896,20.848652 9.9342642,18.169227 12.893353,9.2433198 17.418254,3.4227244 22.291163,2.2739568 c 2.841853,-0.6699543 5.867031,0.4897308 7.924515,3.0378177 1.865605,2.310455 4.903669,7.3823725 6.484948,10.8263435 0.859302,1.871533 1.840698,4.580885 1.844035,5.090857 0.0028,0.421924 -0.347688,0.363921 -1.609396,-0.266371 -2.187711,-1.09288 -2.641813,-0.960352 -5.384751,1.571521 -2.233173,2.061333 -2.734381,2.364166 -3.429272,2.071986 z"
         id="path310" />
      <path
         style="fill:#ffffff;stroke-width:0.126175"
         d="m 21.575957,45.732931 c -5.027211,-0.77833 -9.941855,-4.50947 -12.4106293,-9.422003 -2.0388021,-4.056947 -1.2952432,-8.110774 1.4876903,-8.110774 1.223631,0 2.456867,0.753809 4.716867,2.883157 0.831417,0.783352 1.422905,1.250501 1.514102,1.195815 0.08231,-0.04936 1.188166,-1.086684 2.457448,-2.305165 2.492926,-2.393152 3.089566,-2.842591 3.602651,-2.713815 0.520071,0.13053 1.380307,1.104992 3.254337,3.686464 0.970644,1.337059 1.903033,2.521586 2.071976,2.632282 0.700365,0.458897 1.153164,0.169833 4.09832,-2.616337 2.67653,-2.532046 3.070382,-2.723707 4.165839,-2.027234 0.886424,0.563574 2.115751,1.633956 2.536254,2.20833 0.368242,0.502991 0.382412,0.568269 0.319653,1.472635 -0.06754,0.973283 -0.690275,2.989047 -1.287532,4.167675 -0.631517,1.246239 -1.92951,3.001638 -3.08303,4.169474 -2.479805,2.51058 -4.903819,3.880965 -8.144588,4.604437 -1.053425,0.235168 -4.232759,0.340195 -5.299358,0.175059 z"
         id="path312" />
    </g>
  </g>
</svg>
