<?xml version="1.0" encoding="UTF-8"?>
<svg version="1.1" xmlns="http://www.w3.org/2000/svg" width="500px" height="500px">
<path d="M-239.13-22.714c-0.74-2.722-1.655-5.339-2.718-7.858l-10.954-0.646 c-2.624-4.841-5.988-9.167-9.891-12.831l2.153-10.752c-4.4-3.388-9.245-6.17-14.399-8.259l-8.182,7.287 c-5.147-1.521-10.57-2.251-16.067-2.066l-6.083-9.13c-2.725,0.35-5.45,0.872-8.168,1.615c-2.726,0.73-5.329,1.652-7.853,2.718 l-0.646,10.951c-4.852,2.631-9.171,5.985-12.838,9.897l-10.746-2.163c-3.398,4.4-6.177,9.248-8.263,14.393l7.28,8.191 c-1.527,5.141-2.241,10.57-2.066,16.074l-9.13,6.079c0.343,2.715,0.881,5.438,1.622,8.165c0.733,2.722,1.642,5.336,2.718,7.855 l10.947,0.64c2.625,4.852,5.989,9.174,9.891,12.845l-2.153,10.738c4.394,3.398,9.245,6.184,14.399,8.263l8.182-7.28 c5.141,1.541,10.563,2.244,16.081,2.065l6.068,9.135c2.719-0.354,5.438-0.885,8.162-1.619c2.725-0.739,5.336-1.651,7.859-2.711 l0.646-10.957c4.852-2.625,9.164-5.982,12.831-9.898l10.738,2.164c3.405-4.4,6.19-9.245,8.276-14.402l-7.287-8.183 c1.527-5.14,2.241-10.566,2.066-16.077l9.137-6.076C-237.865-17.264-238.39-19.986-239.13-22.714z M-257.647-17.698 c5.976,22.069-7.071,44.805-29.147,50.779c-22.069,5.975-44.798-7.071-50.773-29.147c-5.981-22.073,7.065-44.809,29.148-50.783 C-286.357-52.821-263.622-39.774-257.647-17.698z" transform="translate(491.78471,169.30575)"/>
<path d="M354.443,174.441c0-0.246,0-0.246,0-0.246c-3.836-5.116-8.432-9.464-13.795-13.554v0.252 c-4.352,3.327-8.699,6.906-12.783,10.486c-1.803-1.02-3.33-1.79-4.865-2.561c-2.045-1.02-4.084-2.045-6.391-2.557 c-0.768-0.256-1.541-0.508-2.303-0.508c-0.51-5.625-1.021-11.25-1.789-16.879c-2.564-0.511-5.121-0.511-7.934-0.767 c-0.76,0-1.533,0-2.045,0c-0.76,0-1.533,0-2.039,0c-2.557,0.256-4.857,0.256-7.166,0.767c-0.766,5.369-1.277,10.994-1.533,16.623 c-1.016,0-1.789,0.256-2.807,0.508c-0.262,0-0.518,0-0.773,0.256c-2.039,0.512-4.09,1.537-6.129,2.557 c-1.791,0.771-3.33,1.541-4.857,2.561c-4.348-3.58-8.445-6.903-12.791-10.486c0,0,0,0-0.256-0.252 c-1.016,0.764-2.047,1.53-2.812,2.297c-1.791,1.282-3.318,2.816-4.604,4.351c-2.301,2.045-4.09,4.603-6.135,7.152 c0,0,0,0,0.255,0c3.332,4.356,6.904,8.444,10.484,12.787c-1.023,1.531-2.039,3.324-2.812,4.865 c-1.023,2.038-1.791,4.343-2.301,6.385c-0.512,1.026-0.768,2.049-0.768,2.816c-5.625,0.511-11.25,1.025-16.62,1.789 c-0.512,2.558-0.767,5.114-0.767,7.927c0,3.835,0.255,7.67,1.022,11.25c5.376,0.511,10.738,1.02,16.364,1.53 c0,1.029,0.256,2.046,0.768,2.816c0.51,2.3,1.277,4.343,2.301,6.648c1.021,1.789,1.789,3.578,3.068,5.117 c-3.574,4.342-7.16,8.438-10.484,12.779c3.836,5.373,8.438,9.973,13.807,13.809v-0.256c4.105-3.324,8.438-6.904,12.535-10.484 h0.25c1.277,0.768,2.818,1.539,4.098,2.305c2.295,1.023,4.852,2.043,7.158,2.551c1.018,0.262,1.791,0.514,2.551,0.77 c0.512,5.369,1.023,10.994,1.789,16.619c2.309,0.256,4.609,0.512,7.166,0.512c0.506,0,2.039,0,3.836,0 c2.805,0,5.617-0.256,8.438-0.766c0.512-5.371,1.023-10.996,1.533-16.621c0.762-0.252,1.535-0.514,2.303-0.766l0,0 c2.307-0.512,4.346-1.275,6.391-2.299c1.783-0.766,3.58-1.793,5.363-3.07c0,0.256,0,0.256,0.256,0.256 c4.098,3.582,8.451,7.158,12.791,10.482c0.76-0.512,1.527-1.023,2.549-1.783c1.541-1.285,3.068-2.82,4.354-4.354 c2.295-2.297,4.604-4.857,6.654-7.67c-3.586-4.348-7.164-8.691-10.744-12.785c0-0.256,0-0.256,0-0.256 c0.773-1.277,1.533-2.814,2.301-4.346c0.76-2.049,1.789-4.092,2.301-6.137c0-0.255,0-0.511,0.256-0.511 c0-1.02,0.256-1.786,0.512-2.298c5.631-0.512,11.242-1.026,16.619-1.537c0.512-2.554,0.512-5.114,0.768-7.671 c0-0.767,0-1.534,0-2.301c0-0.509,0-1.282,0-2.046c-0.256-2.557-0.256-5.117-0.768-7.67c-5.377-0.509-10.988-1.023-16.619-1.534 c-0.256-0.768-0.512-1.534-0.512-2.305c-0.768-2.298-1.541-4.603-2.557-6.896c-0.768-1.541-1.789-3.334-2.564-4.865 C347.283,183.141,350.877,178.797,354.443,174.441z M286.182,195.669c4.604-4.858,10.221-7.156,16.619-6.91 c6.648-0.246,12.012,2.052,16.869,6.91c4.602,4.602,6.91,10.23,6.91,16.615c0,6.651-2.309,12.024-6.91,16.882 c-4.857,4.6-10.221,6.9-16.869,6.9c-6.398,0-12.016-2.301-16.619-6.9c-4.602-4.858-6.91-10.231-6.91-16.882 C279.271,205.9,281.58,200.271,286.182,195.669z"/>
<path d="M303.051,192.093c-5.625,0-10.227,2.038-14.318,5.874c-3.828,4.094-5.881,8.692-5.881,14.317 c0,5.629,2.053,10.231,5.881,14.322l0,0c4.092,4.087,8.693,6.136,14.318,6.136c5.631,0,10.234-2.049,14.318-6.136l0,0 c4.09-4.091,5.887-8.693,5.887-14.322l0,0c0-5.625-1.797-10.224-5.887-14.317C313.285,194.131,308.682,192.093,303.051,192.093z M292.312,201.549c3.074-2.815,6.654-4.343,10.738-4.343c4.09,0,7.67,1.527,10.746,4.343c3.066,3.068,4.346,6.393,4.346,10.735 l0,0c0,4.347-1.279,7.934-4.346,10.742c-3.076,3.065-6.656,4.603-10.746,4.603c-4.084,0-7.664-1.538-10.738-4.603 c-2.807-2.809-4.348-6.396-4.348-10.742C287.965,208.198,289.506,204.618,292.312,201.549z"/>
<path d="M237.34,234.021c-1.022-0.51-1.783-0.766-2.557-0.766c-3.062-0.764-6.137-1.279-9.205-1.791 c-2.812,6.908-5.113,13.549-7.414,20.199c-1.279,0-2.558,0-3.58,0c-0.512,0-0.767,0-1.016,0c-3.075,0.256-5.888,0.516-8.7,1.027 c-2.301,0.256-4.603,1.02-6.903,1.785c-4.091-5.873-8.438-11.762-12.528-17.387c-0.256-0.256-0.256-0.256-0.256-0.256 c-1.534,0.512-3.068,1.027-4.34,1.783c-2.563,1.029-4.864,2.309-7.166,3.842c-3.579,1.787-6.903,4.092-9.972,6.904 c0,0,0,0,0,0.256c3.068,6.395,5.881,12.791,8.949,19.176c-1.79,1.791-3.324,3.324-4.858,5.369 c-2.045,2.047-3.835,4.604-5.369,7.16l0,0c-0.767,1.021-1.278,2.045-1.79,3.324c-7.158-1.279-14.318-2.559-21.477-3.58 c-1.278,3.074-2.557,6.137-3.58,9.459c-1.022,5.115-2.045,9.973-2.557,14.83c6.647,2.557,13.295,5.113,19.943,7.67 c0,1.023,0,2.303,0,3.588c0,2.805,0.256,5.887,1.022,8.941c0.256,2.557,1.022,5.113,1.79,7.67 c-5.881,4.098-11.506,8.182-17.387,12.529c3.068,7.678,7.415,14.83,12.528,21.484c0,0,0,0,0.256,0 c6.392-3.076,12.784-5.889,19.432-8.949l0,0c1.534,1.527,3.068,2.805,4.603,4.346c2.301,2.039,5.12,3.836,8.182,5.619 c0.768,0.512,1.79,1.029,2.812,1.797c-1.278,6.896-2.301,14.062-3.323,21.215c2.812,1.277,5.625,2.301,8.692,3.074 c0.768,0.256,2.302,0.768,4.858,1.271c3.579,1.023,7.159,1.535,10.483,2.053c2.812-6.91,5.369-13.551,7.67-20.461 c1.022,0,2.046,0,3.068,0h0.256c3.068,0,5.881-0.256,8.699-0.762c2.551-0.518,5.114-1.285,7.671-2.045c0,0,0,0.25,0.249,0.25 c4.091,5.887,8.438,11.773,12.528,17.648c1.285-0.768,2.557-1.271,3.58-1.783c2.557-1.037,4.858-2.314,7.159-3.586 c3.836-2.301,7.414-4.865,10.738-7.678c-2.805-6.648-5.873-13.033-8.949-19.682l0,0c1.535-1.539,2.812-3.074,4.354-4.607 c1.791-2.295,3.574-4.859,5.121-7.152c0-0.256,0.242-0.52,0.242-0.775c0.512-0.766,1.023-1.789,1.541-2.549 c7.152,1.271,14.318,2.295,21.471,3.58c1.277-3.076,2.307-6.145,3.33-9.469c0.256-0.76,0.512-1.533,0.76-2.549 c0.256-0.768,0.256-1.541,0.768-2.557c0.512-3.324,1.285-6.654,1.541-9.723c-6.654-2.812-13.551-5.115-20.205-7.664 c0-1.029,0-1.797,0-3.076c0-3.066-0.256-6.391-1.018-9.459c-0.254-2.301-1.021-4.596-1.539-6.904 c5.887-4.09,11.76-8.438,17.385-12.783c0,0,0,0,0.256,0c-3.068-7.67-7.158-14.83-12.783-21.471l0,0 c-6.648,2.805-13.033,5.873-19.432,8.941c-1.791-1.789-3.58-3.578-5.369-5.113c-2.303-1.789-4.604-3.58-7.16-4.857 c-0.761-0.768-1.79-1.279-2.557-1.791c1.022-7.154,2.308-14.314,3.323-21.473c-3.067-1.283-6.392-2.561-9.716-3.586 C239.13,234.284,238.108,234.021,237.34,234.021z M189.784,329.647c-4.347-7.416-5.369-15.086-3.068-23.268 c2.045-8.176,6.903-14.318,14.318-18.666c7.159-4.084,15.085-5.113,23.011-3.066c8.183,2.301,14.574,6.902,18.665,14.324 c4.347,7.408,5.376,15.078,3.075,23.26c-2.052,8.189-6.91,14.318-14.062,18.41c-7.678,4.346-15.348,5.369-23.274,3.068 C200.266,341.663,193.875,336.806,189.784,329.647z"/>
<path d="M191.318,307.657c-2.046,6.904-1.278,13.559,2.301,19.688h0.256c3.579,6.4,8.948,10.229,15.853,12.273 c6.903,1.789,13.551,1.023,19.942-2.557l0,0c6.393-3.836,10.228-8.949,12.273-15.846v-0.262 c1.79-6.904,0.767-13.553-2.812-19.688c-3.573-6.393-8.942-10.484-15.853-12.273c-6.903-2.045-13.807-1.023-19.943,2.557 C196.943,295.13,193.107,300.499,191.318,307.657z M206.659,297.431c4.857-2.812,9.716-3.58,14.829-2.045 c5.12,1.277,9.212,4.346,12.018,9.203c2.812,4.604,3.323,9.717,2.052,14.83c-1.534,5.113-4.609,9.205-9.211,11.768v0.25 c-4.858,2.562-9.716,3.324-14.83,1.789c-5.369-1.277-9.204-4.346-12.017-9.203c-2.557-4.604-3.324-9.461-2.046-14.83 C198.988,304.085,202.056,300.243,206.659,297.431z"/>
 </svg>