<?xml version="1.0" encoding="UTF-8" standalone="no"?>
<!-- Created with Inkscape (http://www.inkscape.org/) -->

<svg
   version="1.1"
   id="svg2"
   width="60"
   height="60"
   viewBox="0 0 60 60"
   xmlns="http://www.w3.org/2000/svg"
   xmlns:svg="http://www.w3.org/2000/svg">
  <defs
     id="defs6" />
  <g
     id="g8">
    <g
       id="g504">
      <path
         style="fill:#000000"
         d="M 16.658184,58.624088 C 14.764379,58.052069 12.301751,56.944457 11.185678,56.162729 10.069605,55.381002 8.131582,54.741406 6.87896,54.741406 c -1.252621,0 -2.277493,-0.45 -2.277493,-1 0,-0.55 0.440352,-1 0.978561,-1 0.595277,0 0.532407,-0.979202 -0.160515,-2.5 -0.626492,-1.375 -1.966845,-2.5 -2.978561,-2.5 -1.011717,0 -1.83948502,-0.45 -1.83948502,-1 0,-0.55 0.45000002,-1 1.00000002,-1 1.690078,0 1.106461,-3.837875 -0.75000002,-4.932014 -1.081335,-0.637304 -1.367906,-1.324955 -0.75,-1.79969 0.55,-0.422563 1.49869102,-1.668296 2.10820202,-2.768296 1.04933,-1.89375 2.291814,-2.014317 23.387891,-2.2695 L 47.877247,33.702407 47.334861,28.471906 C 46.040639,15.991069 36.686748,1.7414061 29.788186,1.7414061 c -6.755433,0 -15.087408,11.5210279 -17.537534,24.2499999 -0.608731,3.1625 -1.765219,8.949377 -2.189379,8.949377 -2.052608,0 1.231018,-14.684536 5.311904,-22.522121 6.17774,-11.86471659 13.887287,-15.2256784 21.538622,-9.3897202 4.63624,3.5362329 10.434585,15.1758592 11.941045,23.9705102 1.083415,6.324929 1.280122,6.65865 4.092521,6.94312 1.696303,0.171579 3.423188,1.150512 4.055252,2.298834 0.605467,1.1 1.550849,2.345733 2.100849,2.768296 0.617906,0.474735 0.331335,1.162386 -0.75,1.79969 -1.856462,1.094139 -2.440079,4.932014 -0.75,4.932014 0.55,0 1,0.45 1,1 0,0.55 -0.827768,1 -1.839485,1 -1.011717,0 -2.352069,1.125 -2.978561,2.5 -0.692922,1.520798 -0.755793,2.5 -0.160515,2.5 0.538208,0 0.978561,0.45 0.978561,1 0,0.55 -0.917927,1 -2.039837,1 -1.121911,0 -3.934412,0.992356 -6.250001,2.205235 -3.473706,1.819487 -6.134319,2.250036 -15.210161,2.461358 -6.05,0.140869 -12.549477,-0.211891 -14.443283,-0.783911 z m 25.443282,-2.35468 4,-1.318295 -7.749999,-0.104854 c -4.430098,-0.05994 -7.75,-0.533227 -7.75,-1.104853 0,-0.59607 3.814432,-1 9.443296,-1 8.656374,0 9.575481,-0.187495 11.029565,-2.25 1.515752,-2.149977 1.473818,-2.264066 -0.943297,-2.566422 -3.602398,-0.450623 -3.131828,-1.998792 0.720435,-2.37022 2.490946,-0.240172 3.324633,-0.838857 3.569551,-2.563358 0.317916,-2.238491 0.250142,-2.25 -13.249999,-2.25 -8.379701,0 -13.569551,-0.382463 -13.569551,-1 0,-0.619329 5.361111,-1 14.083333,-1 10.822223,0 13.98685,-0.289448 13.666666,-1.25 -0.318713,-0.95614 -6.372222,-1.25 -25.749999,-1.25 -19.377778,0 -25.431287,0.29386 -25.75,1.25 -0.287982,0.863946 0.844444,1.25 3.666666,1.25 2.245834,0 4.083334,0.45 4.083334,1 0,0.55 -1.606298,1 -3.569551,1 -3.129772,0 -3.530182,0.277207 -3.25,2.25 0.310685,2.187579 0.687141,2.257741 13.569551,2.529025 17.219717,0.362622 17.745206,2.220975 0.628028,2.220975 H 6.357522 l 1.48654,2.25 c 1.065865,1.613276 2.656819,2.337018 5.621972,2.557498 4.319747,0.321203 5.792155,2.115296 1.885433,2.297355 -1.594118,0.07429 -1.083987,0.489141 1.75,1.423149 5.155143,1.699 19.844857,1.699 24.999999,0 z M 19.601467,53.741406 c 0,-0.55 2.025,-1 4.5,-1 2.475,0 4.5,0.45 4.5,1 0,0.55 -2.025,1 -4.5,1 -2.475,0 -4.5,-0.45 -4.5,-1 z m 14,-7 c 0,-0.555556 2.666667,-1 6,-1 3.333332,0 5.999999,0.444444 5.999999,1 0,0.555556 -2.666667,1 -5.999999,1 -3.333333,0 -6,-0.444444 -6,-1 z m -20,-7 c 0,-0.555556 2.666667,-1 6,-1 3.333333,0 6,0.444444 6,1 0,0.555556 -2.666667,1 -6,1 -3.333333,0 -6,-0.444444 -6,-1 z m 5,-25.940983 c 0,-0.517541 0.45,-1.219098 1,-1.559017 0.55,-0.339919 1,0.08352 1,0.940983 0,0.857459 -0.45,1.559017 -1,1.559017 -0.55,0 -1,-0.423442 -1,-0.940983 z m 5.765777,-7.0883303 c 3.238998,-2.9463285 6.234223,-3.8931423 6.234223,-1.9706866 0,0.55 -0.614314,1 -1.365141,1 -0.750828,0 -2.509306,0.9 -3.90773,2 C 21.413032,10.82139 20.69496,10.052555 24.367244,6.7120927 Z"
         id="path170" />
      <path
         style="fill:#ffffff;stroke-width:0.111524"
         d="m 10.539033,34.160483 c 0,-0.02995 0.172915,-0.752472 0.384256,-1.605608 0.21134,-0.853137 0.713245,-3.167515 1.115345,-5.143063 1.215604,-5.972366 2.200345,-8.93408 4.42345,-13.304005 2.360047,-4.6391094 5.439255,-8.4756495 8.483726,-10.5703006 2.074489,-1.4272853 4.440415,-2.0016856 6.285406,-1.5259726 6.259322,1.6139054 13.973638,13.6161542 15.767174,24.5312172 0.258585,1.573685 0.83608,6.961068 0.75489,7.04226 -0.03077,0.03077 -3.611264,0.10128 -7.956656,0.156692 -21.788252,0.277841 -25.664974,0.334621 -27.389561,0.401159 -1.027416,0.03964 -1.86803,0.04757 -1.86803,0.01762 z m 9.644159,-19.649522 c 0.516969,-0.516968 0.626723,-1.738784 0.199009,-2.215422 -0.290502,-0.32373 -0.720252,-0.241396 -1.164226,0.223048 -0.513224,0.536889 -0.649202,0.810938 -0.649202,1.308403 0,0.83183 1.030131,1.268259 1.614419,0.683971 z m 3.013834,-5.2006694 c 0.306691,-0.1757301 1.210037,-0.7981081 2.007435,-1.3830623 1.737201,-1.2743734 2.940786,-1.9065487 4.070632,-2.1380721 1.050404,-0.2152445 1.33829,-0.4571586 1.33829,-1.1245826 0,-0.7523712 -0.280236,-0.963079 -1.210797,-0.9103912 -1.450237,0.082112 -3.478901,1.3498776 -5.770936,3.6064114 -1.349149,1.3282521 -1.79307,1.9275472 -1.66842,2.2523784 0.08489,0.2212188 0.495092,0.1205857 1.233796,-0.3026816 z"
         id="path288" />
      <path
         style="fill:#ffcc00;stroke-width:0.111524"
         d="m 25.204461,57.371757 c -2.233038,-0.122341 -4.693459,-0.405736 -6.266904,-0.721834 -1.872926,-0.376261 -4.365202,-1.278046 -4.303039,-1.556977 0.01367,-0.06133 0.515528,-0.167729 1.115241,-0.236436 1.165868,-0.133568 1.424763,-0.203381 1.731654,-0.466955 0.264657,-0.227301 0.245305,-0.49442 -0.05576,-0.769709 -0.62776,-0.574007 -1.631335,-0.85253 -4.142113,-1.149571 -1.985637,-0.234911 -3.08037,-0.541708 -3.97,-1.112581 -0.7017786,-0.45033 -1.0763477,-0.880248 -2.0379272,-2.339065 l -0.7743458,-1.174763 9.797694,-0.06851 c 9.281822,-0.0649 11.383196,-0.13287 13.697414,-0.443054 0.943499,-0.126461 1.620725,-0.351393 1.620725,-0.538304 0,-0.702576 -5.220858,-1.147934 -16.449814,-1.403228 C 9.2222638,45.255612 6.674008,45.028616 5.7373421,44.550765 5.1866775,44.269837 4.9879288,43.882508 4.8378314,42.797766 4.702423,41.819181 4.7909447,41.437465 5.2182149,41.157507 c 0.33895,-0.222089 1.6096997,-0.387045 3.0345732,-0.393918 1.9140989,-0.0092 3.3457249,-0.439366 3.3457249,-1.005225 0,-0.621883 -1.327032,-0.944669 -4.5308171,-1.10207 -2.2631897,-0.111189 -3.0066653,-0.297019 -3.1633439,-0.79067 -0.248433,-0.782743 1.2355116,-1.078141 6.85773,-1.36512 3.887609,-0.198438 33.750445,-0.197291 37.695167,0.0014 5.1218,0.258041 6.802974,0.536848 6.802974,1.128209 0,0.68482 -3.205622,1.007188 -10.092937,1.014978 -9.323035,0.01054 -16.266439,0.334291 -17.303485,0.806801 -0.409895,0.186761 -0.331773,0.502156 0.156645,0.632402 1.697078,0.452557 3.965434,0.56303 13.856877,0.674853 9.878151,0.111672 11.247812,0.185914 12.128859,0.657435 0.355144,0.190068 0.477174,0.694698 0.353579,1.462153 -0.145668,0.904514 -0.277983,1.220507 -0.689856,1.647511 -0.475505,0.492973 -1.267934,0.765683 -2.814081,0.968452 -1.598557,0.209642 -2.094704,0.336591 -2.7117,0.693845 -0.424767,0.245948 -0.476438,0.318757 -0.446097,0.628589 0.06166,0.629682 0.741503,0.926779 2.765438,1.20852 0.997174,0.13881 1.562557,0.355037 1.562557,0.597588 0,0.287151 -0.38278,0.956018 -1.103008,1.92739 -1.115966,1.505102 -1.959453,1.83699 -5.164039,2.031895 -1.00015,0.06083 -3.324031,0.111535 -5.164179,0.112677 -5.894296,0.0037 -9.799585,0.368941 -10.017569,0.936998 -0.285588,0.744227 2.678953,1.164379 8.790803,1.245883 2.208178,0.02945 4.491635,0.08412 5.074349,0.121491 l 1.05948,0.06795 -1.951673,0.656918 c -3.015753,1.015081 -5.320186,1.404569 -9.769838,1.651273 -2.258896,0.12524 -6.250815,0.123375 -8.575887,-0.004 z m 0.734399,-2.675475 c 0.631601,-0.06481 1.477532,-0.227918 1.879847,-0.362453 0.637685,-0.213245 0.735925,-0.283118 0.766153,-0.544924 0.04236,-0.366891 -0.279101,-0.55948 -1.396431,-0.836614 -0.971148,-0.240876 -4.713638,-0.275395 -5.887314,-0.0543 -2.616359,0.492861 -2.195849,1.455708 0.780669,1.787509 1.278692,0.14254 2.538823,0.146063 3.857076,0.01078 z m 16.496084,-7.026647 c 2.83623,-0.260302 3.949751,-0.804317 2.740869,-1.339063 -2.237097,-0.989575 -11.195477,-0.745773 -11.602829,0.31577 -0.152345,0.397006 0.580581,0.69774 2.226273,0.913483 1.844645,0.241825 4.685094,0.28883 6.635687,0.10981 z M 23.698885,40.547316 c 2.173446,-0.381651 2.580085,-0.983101 0.943158,-1.395009 -2.208904,-0.555839 -7.543646,-0.581073 -9.920853,-0.04693 -2.103885,0.472731 -1.346848,1.171368 1.672862,1.543813 1.059586,0.130687 6.404961,0.05614 7.304833,-0.101877 z"
         id="path499" />
    </g>
  </g>
</svg>
