<?xml version="1.0" encoding="windows-1252"?>
<!-- Generator: Adobe Illustrator 15.1.0, SVG Export Plug-In . SVG Version: 6.00 Build 0)  -->
<!DOCTYPE svg PUBLIC "-//W3C//DTD SVG 1.1//EN" "http://www.w3.org/Graphics/SVG/1.1/DTD/svg11.dtd">
<svg version="1.1" id="Layer_1" xmlns="http://www.w3.org/2000/svg" xmlns:xlink="http://www.w3.org/1999/xlink" x="0px" y="0px" width="128px" height="128px" viewBox="0 0 128 128" style="enable-background:new 0 0 128 128;" xml:space="preserve">
<g>
	<circle style="fill:#F2CF61;" cx="64" cy="64" r="64"/>
	<g>
		<g>
			<defs>
				<circle id="SVGID_1_" cx="64" cy="64" r="64"/>
			</defs>
			<clipPath id="SVGID_2_">
				<use xlink:href="#SVGID_1_" style="overflow:visible;"/>
			</clipPath>
			<g style="clip-path:url(#SVGID_2_);">
				<polygon style="fill:#E6E6E6;" points="17.04,85 17.014,107 17,107 17,119 31.275,119 34,119 53,119 53,100     "/>
				<polygon style="fill:#CCCCCC;" points="43.027,95.84 43,119 53,119 53,100     "/>
				<polygon style="fill:#CCCCCC;" points="17.037,87.879 53,102.41 53,100 17.04,85     "/>
				<path style="fill:#CC584C;" d="M64.659,104.042c-0.206,0.51-0.792,0.759-1.302,0.553L15.143,85.116      c-0.51-0.206-0.758-0.792-0.552-1.302l0.749-1.854c0.206-0.51,0.792-0.758,1.303-0.553l48.213,19.479      c0.511,0.206,0.758,0.793,0.553,1.303L64.659,104.042z"/>
				<rect x="21" y="100" style="fill:#C2E2F2;" width="4" height="6"/>
				<rect x="21" y="100" style="fill:#8FA7B3;" width="4" height="1"/>
				<rect x="29" y="100" style="fill:#C2E2F2;" width="4" height="6"/>
				<rect x="29" y="100" style="fill:#8FA7B3;" width="4" height="1"/>
				<polygon style="fill:#E6E6E6;" points="80,119 44,119 44.04,85 80,100     "/>
				<polygon style="fill:#CCCCCC;" points="78.796,99.498 77,119 80,119 80,100     "/>
				<polygon style="fill:#CCCCCC;" points="44.037,87.879 80,102.41 80,100 44.04,85     "/>
				<path style="fill:#CC584C;" d="M91.659,104.042c-0.206,0.51-0.792,0.759-1.302,0.553L42.143,85.116      c-0.51-0.206-0.758-0.792-0.552-1.302l0.749-1.854c0.206-0.51,0.792-0.758,1.303-0.553l48.213,19.479      c0.511,0.206,0.758,0.793,0.553,1.303L91.659,104.042z"/>
				<rect x="48" y="100" style="fill:#C2E2F2;" width="4" height="6"/>
				<rect x="48" y="100" style="fill:#8FA7B3;" width="4" height="1"/>
				<rect x="56" y="100" style="fill:#C2E2F2;" width="4" height="6"/>
				<rect x="56" y="100" style="fill:#8FA7B3;" width="4" height="1"/>
				<polygon style="fill:#E6E6E6;" points="103,43 94,43 85,43 78,119 94,119 110,119     "/>
				<g>
					<polygon style="fill:#CC584C;" points="105.764,73 105.395,69 82.605,69 82.236,73      "/>
					<polygon style="fill:#CC584C;" points="105.025,65 104.658,61 83.342,61 82.975,65      "/>
					<polygon style="fill:#CC584C;" points="84.079,53 83.711,57 104.289,57 103.921,53      "/>
				</g>
				<path style="opacity:0.4;fill:#F5F5F5;enable-background:new    ;" d="M104,24H76c-2.2,0-4,1.8-4,4v1H56v-2c0-2.2-1.8-4-4-4H34      c-2.2,0-4,1.8-4,4v2c0,2.2,1.8,4,4,4h17v2c0,2.2,1.8,4,4,4h28c2.2,0,4-1.8,4-4v-1h4v9h5v-9h8c2.2,0,4-1.8,4-4v-2      C108,25.8,106.2,24,104,24z"/>
				<rect x="17" y="119" style="fill:#99602E;" width="93" height="12"/>
			</g>
		</g>
	</g>
</g>
</svg>