<?xml version="1.0" encoding="UTF-8" standalone="no"?>
<!-- Created with Inkscape (http://www.inkscape.org/) -->
<svg xmlns:dc="http://purl.org/dc/elements/1.1/" xmlns:cc="http://creativecommons.org/ns#" xmlns:rdf="http://www.w3.org/1999/02/22-rdf-syntax-ns#" xmlns:svg="http://www.w3.org/2000/svg" xmlns="http://www.w3.org/2000/svg" xmlns:sodipodi="http://sodipodi.sourceforge.net/DTD/sodipodi-0.dtd" xmlns:inkscape="http://www.inkscape.org/namespaces/inkscape" width="160" height="160" viewBox="0 0 160 160" id="svg2" version="1.1" inkscape:version="0.91 r13725" sodipodi:docname="oeuf.svg" inkscape:export-filename="C:\Users\Thibaut\Desktop\Dropbox\marcotte\icones-legumes\oeuf.png" inkscape:export-xdpi="90" inkscape:export-ydpi="90">
  <defs id="defs4">
    <mask maskUnits="userSpaceOnUse" id="mask4183">
      <rect style="fill:#d40000;fill-opacity:1;stroke:none;stroke-width:0.25;stroke-opacity:1" id="rect4185" width="196.42857" height="31.428572" x="-223.92857" y="824.86218"/>
    </mask>
    <mask maskUnits="userSpaceOnUse" id="mask4187">
      <path sodipodi:nodetypes="szzzs" inkscape:connector-curvature="0" id="path4189" d="m 133.5323,94.7966 c -0.89445,24.26174 -20.59652,49.29124 -48.257391,49.19704 C 57.614034,143.89964 34.578446,128.60594 31.849125,98.45409 29.119802,68.30222 50.496654,14.03507 82.450665,12.95926 114.40468,11.88344 134.84425,59.21044 133.5323,94.7966 Z" style="fill:#00ffff;fill-opacity:1;stroke:none;stroke-width:0.25;stroke-opacity:1"/>
    </mask>
    <filter inkscape:collect="always" style="color-interpolation-filters:sRGB" id="filter4643" x="-0.24175833" width="1.4835167" y="-0.16594096" height="1.3318819">
      <feGaussianBlur inkscape:collect="always" stdDeviation="8.8206318" id="feGaussianBlur4645"/>
    </filter>
    <filter inkscape:collect="always" style="color-interpolation-filters:sRGB" id="filter4830" x="-0.27320517" width="1.5464103" y="-0.16430247" height="1.3286049">
      <feGaussianBlur inkscape:collect="always" stdDeviation="2.8193639" id="feGaussianBlur4832"/>
    </filter>
    <mask maskUnits="userSpaceOnUse" id="mask4836">
      <path sodipodi:nodetypes="szzzs" inkscape:connector-curvature="0" id="path4838" d="m 131.5323,987.15876 c -0.89445,24.26174 -20.59652,49.29124 -48.257391,49.19704 -27.660875,-0.094 -50.696463,-15.3877 -53.425784,-45.53955 -2.729323,-30.15187 18.647529,-84.41902 50.60154,-85.49483 31.954015,-1.07582 52.393585,46.25118 51.081635,81.83734 z" style="fill:#f5f5f5;fill-opacity:1;stroke:none;stroke-width:0.25;stroke-opacity:1"/>
    </mask>
    <filter inkscape:collect="always" style="color-interpolation-filters:sRGB" id="filter4924" x="-0.48432368" width="1.9686474" y="-0.44827013" height="1.8965403">
      <feGaussianBlur inkscape:collect="always" stdDeviation="3.6163133" id="feGaussianBlur4926"/>
    </filter>
    <filter inkscape:collect="always" style="color-interpolation-filters:sRGB" id="filter4956" x="-0.2138026" width="1.4276052" y="-1.2996948" height="3.5993895">
      <feGaussianBlur inkscape:collect="always" stdDeviation="7.3494643" id="feGaussianBlur4958"/>
    </filter>
    <filter inkscape:collect="always" style="color-interpolation-filters:sRGB" id="filter5050" x="-0.11546746" width="1.2309349" y="-0.7019206" height="2.4038412">
      <feGaussianBlur inkscape:collect="always" stdDeviation="3.9691938" id="feGaussianBlur5052"/>
    </filter>
  </defs>
  <sodipodi:namedview id="base" pagecolor="#ffffff" bordercolor="#666666" borderopacity="1.0" inkscape:pageopacity="0" inkscape:pageshadow="2" inkscape:zoom="1.979899" inkscape:cx="-13.773078" inkscape:cy="85.78938" inkscape:document-units="px" inkscape:current-layer="g4230" showgrid="false" units="px" borderlayer="true" inkscape:window-width="1920" inkscape:window-height="1017" inkscape:window-x="-8" inkscape:window-y="-8" inkscape:window-maximized="1"/>
  <metadata id="metadata7">
    <rdf:RDF>
      <cc:Work rdf:about="">
        <dc:format>image/svg+xml</dc:format>
        <dc:type rdf:resource="http://purl.org/dc/dcmitype/StillImage"/>
        <dc:title/>
      </cc:Work>
    </rdf:RDF>
  </metadata>
  <g inkscape:label="Calque 1" inkscape:groupmode="layer" id="layer1" transform="translate(0,-892.36216)">
    <g id="g5054" transform="matrix(0.68738277,0,0,0.68738277,23.259153,304.62645)">
      <path d="m 113.51932,1035.6756 a 41.25,6.7857141 0 0 1 -33.56445,7.8488 41.25,6.7857141 0 0 1 -47.713187,-5.5212 41.25,6.7857141 0 0 1 33.56237,-7.8491 41.25,6.7857141 0 0 1 47.714647,5.5209 l -40.638352,1.1642 z" sodipodi:end="6.1107642" sodipodi:start="6.1108515" sodipodi:ry="6.7857141" sodipodi:rx="41.25" sodipodi:cy="1036.8392" sodipodi:cx="72.880348" sodipodi:type="arc" id="path4457" style="opacity:0.892;fill:#666666;fill-opacity:1;stroke:none;stroke-width:0.25;stroke-opacity:1;filter:url(#filter4956)"/>
      <path transform="matrix(0.65677778,0,0,0.75856606,35.907012,249.43532)" style="opacity:1;fill:#aea188;fill-opacity:1;stroke:none;stroke-width:0.25;stroke-opacity:1;filter:url(#filter5050)" id="path4960" sodipodi:type="arc" sodipodi:cx="72.880348" sodipodi:cy="1036.8392" sodipodi:rx="41.25" sodipodi:ry="6.7857141" sodipodi:start="6.1108515" sodipodi:end="6.1107642" d="m 113.51932,1035.6756 a 41.25,6.7857141 0 0 1 -33.56445,7.8488 41.25,6.7857141 0 0 1 -47.713187,-5.5212 41.25,6.7857141 0 0 1 33.56237,-7.8491 41.25,6.7857141 0 0 1 47.714647,5.5209 l -40.638352,1.1642 z"/>
      <path sodipodi:nodetypes="szzzs" inkscape:connector-curvature="0" id="path3336" d="m 131.5323,987.15876 c -0.89445,24.26174 -20.59652,49.29124 -48.257391,49.19704 -27.660875,-0.094 -50.696463,-15.3877 -53.425784,-45.53955 -2.729323,-30.15187 18.647529,-84.41902 50.60154,-85.49483 31.954015,-1.07582 52.393585,46.25118 51.081635,81.83734 z" style="fill:#ffeccd;fill-opacity:1;stroke:none;stroke-width:0.25;stroke-opacity:1"/>
      <path sodipodi:nodetypes="ccccccccsccccccccccccccccccccccccsscscccscsssccsccscccsscccccccccccccccccccccccccccccccccccccsc" inkscape:connector-curvature="0" mask="url(#mask4187)" transform="translate(-2,892.36216)" id="path3339" d="m 67.505859,16.421875 c -0.0034,0.0017 -0.0064,0.0041 -0.0098,0.0059 -0.71527,0.365338 -1.421596,0.761081 -2.121094,1.177735 -0.07282,0.04338 -0.1461,0.08499 -0.21875,0.128906 -0.675178,0.408169 -1.341967,0.841159 -2.001953,1.294922 -0.09785,0.06728 -0.19546,0.134874 -0.292969,0.203125 -0.668771,0.468085 -1.329814,0.958076 -1.982422,1.470703 -0.03923,0.03081 -0.07802,0.06278 -0.117187,0.09375 -0.685882,0.542319 -1.365711,1.104444 -2.033203,1.693359 -0.158178,0.139558 -0.309668,0.293466 -0.466797,0.435547 -0.596461,0.539379 -1.188399,1.089536 -1.769531,1.664063 -0.274913,0.271775 -0.543027,0.558569 -0.814454,0.83789 -0.450132,0.463258 -0.89943,0.928849 -1.339843,1.41211 -0.298919,0.327976 -0.592342,0.665125 -0.886719,1.001953 -0.395914,0.453037 -0.78819,0.912432 -1.175781,1.380859 -0.310976,0.375819 -0.620236,0.755313 -0.925782,1.140625 -0.375193,0.473166 -0.74443,0.956496 -1.111328,1.44336 -0.276863,0.367375 -0.556045,0.732588 -0.828125,1.107421 -0.401876,0.553687 -0.794245,1.120285 -1.185547,1.689454 -0.238832,0.34737 -0.481953,0.688161 -0.716797,1.041015 -0.599731,0.901171 -1.188436,1.817502 -1.761718,2.751953 -0.0059,0.0097 -0.01165,0.01963 -0.01758,0.0293 -0.04598,0.075 -0.08896,0.153311 -0.134766,0.228516 -0.531699,0.873006 -1.052368,1.759601 -1.560547,2.658203 -0.215333,0.38075 -0.421767,0.76932 -0.632812,1.154297 -0.34327,0.626204 -0.683833,1.254002 -1.015625,1.890625 -0.2183,0.418842 -0.431259,0.842612 -0.644532,1.265625 -0.30313,0.601279 -0.603625,1.205407 -0.896484,1.814453 -0.21057,0.437894 -0.419801,0.876794 -0.625,1.318359 -0.298539,0.642458 -0.58796,1.28997 -0.875,1.939453 -0.187965,0.425291 -0.377568,0.849356 -0.560547,1.277344 -0.286836,0.670944 -0.563443,1.346647 -0.837891,2.023438 -0.160778,0.396464 -0.32594,0.791243 -0.482421,1.189453 -0.423783,1.078501 -0.834758,2.16131 -1.226563,3.25 -0.393425,1.093191 -0.7684,2.191415 -1.128906,3.291015 -0.120826,0.368533 -0.232532,0.738461 -0.34961,1.107422 -0.224438,0.70733 -0.445725,1.41492 -0.65625,2.123047 -0.138997,0.467518 -0.271429,0.93485 -0.404296,1.402344 -0.18884,0.664473 -0.372499,1.328486 -0.548828,1.992187 -0.115138,0.433359 -0.228139,0.866098 -0.337891,1.298829 -0.171691,0.676988 -0.333808,1.352633 -0.492188,2.027343 -0.103061,0.439027 -0.207317,0.87866 -0.304687,1.316407 -0.152729,0.68669 -0.295009,1.369984 -0.433594,2.052734 -0.08262,0.407019 -0.1705,0.815357 -0.248047,1.220703 -0.204721,1.070148 -0.395551,2.135505 -0.564453,3.191406 -0.170995,1.068987 -0.319519,2.127218 -0.453125,3.177735 -0.04196,0.329894 -0.0731,0.654601 -0.111328,0.982422 -0.08189,0.702375 -0.159996,1.401762 -0.224609,2.09375 -0.03863,0.413678 -0.06917,0.822793 -0.101563,1.232421 -0.049,0.619747 -0.09431,1.235959 -0.128906,1.845704 -0.02253,0.396996 -0.04027,0.791143 -0.05664,1.183593 -0.02547,0.610693 -0.0423,1.213566 -0.05273,1.8125 -0.0067,0.3842 -0.01518,0.769384 -0.01563,1.148438 -7.47e-4,0.637086 0.01225,1.26313 0.0293,1.884765 0.0084,0.30594 0.0107,0.617931 0.02344,0.919922 0.03892,0.922547 0.09389,1.829775 0.173828,2.712891 2.729321,30.151841 25.764906,45.447011 53.425782,45.541011 0.863745,0.003 1.720464,-0.0192 2.568359,-0.0644 6.53e-4,-4e-5 0.0013,3e-5 0.002,0 0.832085,-0.0445 1.654515,-0.11179 2.470703,-0.20117 0.532138,-0.0583 1.05493,-0.14186 1.580078,-0.21875 0.298025,-0.0436 0.60075,-0.0755 0.896485,-0.125 0.559689,-0.0937 1.110801,-0.20983 1.662109,-0.32422 0.234108,-0.0486 0.472506,-0.0865 0.705078,-0.13867 0.0065,-10e-4 0.01303,-0.002 0.01953,-0.004 0.563874,-0.12692 1.117214,-0.27773 1.671874,-0.42578 0.226203,-0.0603 0.456997,-0.11005 0.681641,-0.17383 0.518407,-0.1473 1.027147,-0.31514 1.537109,-0.48047 0.252464,-0.0818 0.509406,-0.15412 0.759766,-0.24023 0.68913,-0.23722 1.36817,-0.49443 2.041016,-0.76368 0.04829,-0.0193 0.09828,-0.0352 0.146482,-0.0547 0.003,-0.001 0.005,-0.003 0.008,-0.004 0.53745,-0.21737 1.06508,-0.45426 1.5918,-0.69141 0.20852,-0.0938 0.42209,-0.17854 0.6289,-0.27539 0.59067,-0.2768 1.16962,-0.57209 1.7461,-0.87304 0.1006,-0.0525 0.20452,-0.0992 0.30469,-0.15235 0.007,-0.004 0.0143,-0.008 0.0215,-0.0117 0.56433,-0.30034 1.11779,-0.6187 1.66797,-0.9414 0.13096,-0.0768 0.26633,-0.14661 0.39648,-0.22461 0.59097,-0.35441 1.17021,-0.72618 1.74414,-1.10547 0.0649,-0.0429 0.13257,-0.0818 0.19727,-0.125 0.007,-0.004 0.0129,-0.009 0.0195,-0.0137 0.64244,-0.42957 1.27426,-0.87459 1.89453,-1.33399 0.60017,-0.4445 1.18874,-0.90394 1.76758,-1.375 0.0256,-0.0208 0.0526,-0.0397 0.0781,-0.0605 0.004,-0.003 0.008,-0.007 0.0117,-0.01 0.59931,-0.49 1.18601,-0.99469 1.76172,-1.51172 0.57197,-0.51365 1.13357,-1.03928 1.68164,-1.57812 0.007,-0.007 0.0143,-0.0144 0.0215,-0.0215 l 0.004,-0.004 c 0.54244,-0.53405 1.07146,-1.08139 1.58985,-1.63868 0.0107,-0.0115 0.0225,-0.0217 0.0332,-0.0332 -6.29771,3.39755 -10.97367,0.37621 -18.785152,0.34961 C 70.741469,129.05053 57.456084,113.46025 52.476562,95.391183 43.929876,64.37803 50.460297,34.654734 67.505859,16.421875 Z" style="opacity:0.61600001;fill:#6c5d53;fill-opacity:1;stroke:none;stroke-width:0.25;stroke-opacity:1;filter:url(#filter4643)"/>
      <path mask="url(#mask4836)" sodipodi:nodetypes="cccccccccccccc" inkscape:connector-curvature="0" id="path4771" d="m 129.30039,996.04809 c -5.94656,12.50731 -9.55974,11.45001 -16.77736,25.59111 -1.84353,1.7233 -2.68036,4.5117 0.0218,5.4909 2.51521,-0.2895 5.63987,-0.1771 7.63559,-1.6787 0.64228,-1.6048 1.23793,1.3214 2.74159,-0.088 3.46759,-1.7349 4.35408,-5.8294 6.71722,-8.613 1.72546,-2.9145 3.9729,-5.4547 5.94359,-8.2002 -0.0413,-2.7823 -3.72338,-3.2836 -4.56038,-5.7728 -1.5236,-2.3661 3.32325,-14.13313 2.57114,-16.83033 z m -8.82187,29.28671 c -0.25314,0.4194 0.25047,0.2921 0,0 z m 0.0352,0.3789 c -0.19028,0.9071 1.03217,0.6203 0,0 z" style="fill:#fdf9ec;fill-rule:evenodd;stroke:none;stroke-width:1px;stroke-linecap:butt;stroke-linejoin:miter;stroke-opacity:1;filter:url(#filter4830);fill-opacity:1"/>
      <path transform="matrix(1.2019637,0.20168208,-0.14794284,2.0565132,142.78852,-1060.2671)" inkscape:connector-curvature="0" id="path4840" d="m 98.107351,975.8917 c -1.39452,-3.1823 -4.06049,-5.68606 -6.34133,-8.20644 -2.477157,-1.58327 -4.796231,-4.72076 -8.065908,-3.97443 -4.022574,0.99368 -2.844094,5.98891 -2.536007,9.00423 0.888556,3.65395 5.047531,4.72215 7.412173,7.23857 2.194512,3.59277 8.233122,4.43533 9.885242,-0.0908 0.41433,-1.31464 0.22684,-2.73897 -0.35417,-3.97115 z" style="fill:#ffffff;fill-rule:evenodd;stroke:none;stroke-width:1px;stroke-linecap:butt;stroke-linejoin:miter;stroke-opacity:1;filter:url(#filter4924)"/>
      <g id="g4230" style="fill:#f7cbb4;fill-opacity:1">
        <path inkscape:connector-curvature="0" id="path4158" d="m 77.772951,918.55144 c -0.76775,1.32299 0.99774,3.18002 2.747626,2.53999 1.615815,-0.49378 2.098187,-2.74646 0.377142,-3.37813 -1.047284,-0.45735 -3.159626,-0.53683 -3.124768,0.83814 z" style="fill:#f7cbb4;fill-opacity:1;fill-rule:evenodd;stroke:none;stroke-width:1.45479345px;stroke-linecap:butt;stroke-linejoin:miter;stroke-opacity:1"/>
        <path inkscape:connector-curvature="0" id="path4160" d="m 95.044703,913.59617 c -1.863964,0.0699 1.81458,3.987 3.018369,3.25911 0.789915,-0.61914 -1.694024,-3.21411 -3.018369,-3.25911 z" style="fill:#f7cbb4;fill-opacity:1;fill-rule:evenodd;stroke:none;stroke-width:1.45479345px;stroke-linecap:butt;stroke-linejoin:miter;stroke-opacity:1"/>
        <path inkscape:connector-curvature="0" id="path4162" d="m 49.0287,939.72386 c -0.0894,1.43089 1.15075,1.58432 1.123506,0.13056 -0.04188,-1.25887 -0.926191,-1.01296 -1.123506,-0.13056 z" style="fill:#f7cbb4;fill-rule:evenodd;stroke:none;stroke-width:1.45479345px;stroke-linecap:butt;stroke-linejoin:miter;stroke-opacity:1;fill-opacity:1"/>
        <path inkscape:connector-curvature="0" id="path4164" d="m 86.215066,920.62968 c 0.06804,0.70211 -1.962555,0.12918 -1.120769,1.11344 0.488173,0.83452 2.239223,0.94319 2.762139,0.0803 0.343107,-0.84834 -1.012979,-0.95729 -1.64137,-1.19376 l 0,2e-5 z" style="fill:#f7cbb4;fill-opacity:1;fill-rule:evenodd;stroke:none;stroke-width:1.45479345px;stroke-linecap:butt;stroke-linejoin:miter;stroke-opacity:1"/>
        <path inkscape:connector-curvature="0" id="path4166" d="m 67.998281,960.09177 c 0.609123,1.44183 2.503427,1.87064 3.468844,0.75936 0.803563,-2.07132 -1.843131,-3.42667 -3.038277,-2.23731 -0.411362,1.07387 0.569231,-0.41565 -0.03897,0.88421 -0.119819,0.18757 -0.169837,0.52864 -0.391588,0.59374 z" style="fill:#f7cbb4;fill-opacity:1;fill-rule:evenodd;stroke:none;stroke-width:1.45479345px;stroke-linecap:butt;stroke-linejoin:miter;stroke-opacity:1"/>
        <path inkscape:connector-curvature="0" id="path4168" d="m 84.853877,946.36226 c -1.481974,1.39072 1.414727,3.76449 2.163059,1.86884 0.643121,-1.49397 -1.141641,-3.04269 -2.163059,-1.86884 z" style="fill:#f7cbb4;fill-opacity:1;fill-rule:evenodd;stroke:none;stroke-width:1.45479345px;stroke-linecap:butt;stroke-linejoin:miter;stroke-opacity:1"/>
        <path style="fill:#cfb2a3;fill-opacity:1;fill-rule:evenodd;stroke:none;stroke-width:1.45479345px;stroke-linecap:butt;stroke-linejoin:miter;stroke-opacity:1" d="m 41.482524,951.29013 c -0.522596,1.78782 0.0889,2.60775 1.134048,1.47119 1.502221,-2.28593 1.064954,-4.31544 -0.126097,-3.1263 -0.776474,1.18603 0.484092,-0.39008 -0.505159,1.02699 -0.157107,0.1991 -0.367604,0.58934 -0.502786,0.62812 z" id="path4238" inkscape:connector-curvature="0"/>
        <path inkscape:connector-curvature="0" id="path4240" d="m 35.418267,990.80284 c 0.979071,2.16303 2.005773,2.43722 1.867196,0.46087 -0.685828,-3.46912 -2.496648,-5.05549 -2.417868,-2.90543 0.357822,1.79742 0.03753,-0.78405 0.423318,1.4154 0.04191,0.32431 0.19017,0.87778 0.127353,1.02914 z" style="fill:#bf9985;fill-opacity:1;fill-rule:evenodd;stroke:none;stroke-width:1.45479345px;stroke-linecap:butt;stroke-linejoin:miter;stroke-opacity:1"/>
      </g>
    </g>
  </g>
</svg>