<?xml version="1.0" encoding="UTF-8" standalone="no"?>
<!-- Created with Inkscape (http://www.inkscape.org/) -->

<svg
   version="1.1"
   id="svg2"
   width="64"
   height="64"
   viewBox="0 0 64 64"
   xmlns="http://www.w3.org/2000/svg"
   xmlns:svg="http://www.w3.org/2000/svg">
  <defs
     id="defs6">
    <rect
       x="34.150289"
       y="37.217632"
       width="62.179238"
       height="99.764173"
       id="rect445" />
  </defs>
  <g
     id="g334">
    <path
       style="fill:#000000"
       d="m 2.9111325,60.2643 c 0.9625,-0.251527 2.5375,-0.251527 3.5,0 0.9625,0.251528 0.175,0.457323 -1.75,0.457323 -1.925,0 -2.7125,-0.205795 -1.75,-0.457323 z M 19.911133,60.20686 c 6.4625,-0.174186 17.0375,-0.174186 23.5,0 6.4625,0.174186 1.175,0.316703 -11.75,0.316703 -12.925,0 -18.2125,-0.142517 -11.75,-0.316703 z m 37,0.05744 c 0.9625,-0.251527 2.5375,-0.251527 3.5,0 0.9625,0.251528 0.175,0.457323 -1.75,0.457323 -1.925,0 -2.7125,-0.205795 -1.75,-0.457323 z M 2.0541445,57.371839 c 0.333843,-0.869984 0.606988,-13.469984 0.606988,-28 V 2.953626 H 19.080546 35.499958 l 5.580588,5.1003425 c 5.572204,5.0926805 5.580587,5.1092425 5.580587,11.0247505 0,5.543752 0.176694,5.991351 2.75,6.96627 6.132553,2.323372 10.420366,8.612684 10.410589,15.270126 -0.0081,5.525403 -1.281368,8.541594 -5.239228,12.411136 l -3.301037,3.227375 h 5.189838 c 2.854411,0 5.189838,0.45 5.189838,1 0,0.644523 -10.70233,1 -30.106989,1 -27.0427935,0 -30.0452115,-0.160989 -29.4999995,-1.581787 z M 34.388262,54.953626 C 32.211026,53.241012 30.144026,52.924964 20.003404,52.75416 L 8.1611325,52.554695 19.571311,52.00416 c 9.127128,-0.440378 11.11681,-0.792931 9.943989,-1.761982 -0.860219,-0.710761 -5.576003,-1.347531 -11.410178,-1.54071 L 8.1611325,48.372206 18.47015,48.162916 c 5.669959,-0.11511 10.084681,-0.572273 9.810492,-1.01592 C 28.006454,46.70335 23.64029,46.220886 18.578056,46.074855 12.471323,45.898693 8.9175305,45.352881 8.0175635,44.452914 6.3145405,42.74989 6.2413725,38.958768 7.9111325,38.938313 c 0.882802,-0.01081 0.835161,-0.277914 -0.162179,-0.909249 -1.194276,-0.756 -1.156846,-1.14927 0.24258,-2.548696 1.439794,-1.439794 1.479094,-2.003689 0.302519,-4.340751 -2.552728,-5.070553 -2.740992,-7.831744 -0.704559,-10.333459 1.820633,-2.236608 2.4405575,-2.340021 12.5806345,-2.098635 13.123715,0.312412 15.05728,-0.695537 14.874432,-7.753897 -0.0999,-3.8565106 -0.05552,-3.9637589 0.310365,-0.75 0.426173,3.743275 0.435349,3.749961 5.116573,3.728428 L 45.161133,13.910483 39.98548,8.9320545 34.809826,3.953626 H 19.73548 4.6611325 v 26.5 26.5 H 20.795992 36.93085 Z M 14.450321,16.212212 c 3.459053,-0.19583 8.859053,-0.194213 12,0.0036 3.140946,0.197803 0.310812,0.358027 -6.289188,0.35605 -6.6,-0.002 -9.169866,-0.16382 -5.710812,-0.35965 z m 0,-4 c 3.459053,-0.19583 8.859053,-0.194213 12,0.0036 3.140946,0.197803 0.310812,0.358027 -6.289188,0.35605 -6.6,-0.002 -9.169866,-0.16382 -5.710812,-0.35965 z m 8.74588,23.991414 c -0.0218,-3.574796 0.626951,-7.037584 1.714932,-9.153638 0.9625,-1.872001 1.75,-3.547945 1.75,-3.72432 0,-1.268253 -6.787264,-3.372042 -10.878912,-3.372042 -5.100232,0 -8.1210885,1.712412 -8.1210885,4.603547 0,2.644155 3.0576285,8.844844 5.8030485,11.768237 2.268261,2.415302 7.274108,5.445847 9.23202,5.589074 0.294287,0.02153 0.519287,-2.548358 0.5,-5.710858 z m 4.464932,2.400038 c 0,-1.292478 1.297531,-4.141151 2.883403,-6.330383 2.595469,-3.58294 4.45875,-4.781264 10.472666,-6.735238 1.458858,-0.473995 1.709162,-1.188381 1.169606,-3.33814 -0.942154,-3.753844 -2.3683,-5.246277 -5.013261,-5.246277 -6.959623,0 -14.824827,14.810374 -11.905425,22.418213 0.912157,2.377043 2.393011,1.901678 2.393011,-0.768175 z m 18,-19.150038 c 0,-4.362112 -0.09465,-4.5 -3.088894,-4.5 h -3.088893 l 2.588893,3.076725 c 1.423892,1.692199 2.588894,3.717199 2.588894,4.5 0,0.782801 0.225,1.423275 0.5,1.423275 0.275,0 0.5,-2.025 0.5,-4.5 z"
       id="path174" />
    <path
       style="fill:#ffffff;stroke-width:0.118959"
       d="M 21.710037,41.6228 C 19.17118,40.769254 14.904958,37.893539 13.172101,35.867669 10.46793,32.706241 7.7983284,27.152079 7.7681015,24.624535 7.7429145,22.51842 9.3613074,20.993964 12.312268,20.344126 c 1.201734,-0.264637 4.178166,-0.366729 5.532253,-0.189757 2.42744,0.317254 5.671621,1.211052 7.255851,1.999044 0.848461,0.422023 1.486989,0.921321 1.486989,1.162753 0,0.07376 -0.482902,1.120993 -1.073114,2.327186 -0.590212,1.206194 -1.203067,2.601979 -1.361898,3.101746 -0.653116,2.055034 -1.013859,4.879896 -1.015721,7.953787 -0.0011,1.756737 -0.160628,4.234218 -0.311399,4.834934 -0.08298,0.330637 -0.336276,0.350847 -1.115192,0.08898 z"
       id="path314" />
    <path
       style="fill:#ffffff;stroke-width:0.118959"
       d="m 26.102777,40.53944 c -1.022248,-0.860164 -1.607806,-3.790559 -1.302267,-6.517135 0.80309,-7.166639 5.788182,-15.000462 10.613467,-16.67853 0.744746,-0.258997 1.010369,-0.292243 1.993989,-0.249572 1.36582,0.05925 2.010881,0.310948 2.787642,1.08771 0.903963,0.903962 1.815186,3.061511 2.114803,5.007319 0.150086,0.974712 -0.01881,1.570253 -0.542672,1.9135 -0.167296,0.109617 -1.175484,0.506115 -2.240418,0.881107 -3.244761,1.142567 -4.586007,1.81179 -6.197145,3.092102 -2.520846,2.003224 -5.350184,6.643662 -5.678105,9.31274 -0.199469,1.623559 -0.229025,1.738232 -0.544703,2.113393 -0.37284,0.443097 -0.516077,0.448425 -1.004591,0.03737 z"
       id="path316" />
    <path
       style="fill:#ffffff;stroke-width:0.118959"
       d="m 26.102777,40.53944 c -1.225945,-1.031564 -1.738816,-4.910757 -1.073959,-8.123083 0.72412,-3.49866 2.292527,-7.095352 4.36492,-10.009693 0.883293,-1.242148 2.958609,-3.347933 3.972035,-4.030351 0.424038,-0.285538 1.146715,-0.682744 1.605948,-0.88268 0.771553,-0.335911 0.938875,-0.363521 2.203,-0.363521 1.614656,0 2.158409,0.189321 3.020887,1.051801 0.903963,0.903962 1.815186,3.061511 2.114803,5.007319 0.149736,0.972441 -0.01872,1.570195 -0.538488,1.910759 -0.164996,0.108109 -1.183409,0.509058 -2.26314,0.890995 -3.124471,1.105233 -4.626753,1.851726 -6.097525,3.029896 -2.630712,2.107346 -5.417518,6.655621 -5.761326,9.40291 -0.199266,1.592287 -0.228792,1.705386 -0.542564,2.078282 -0.37284,0.443097 -0.516077,0.448425 -1.004591,0.03737 z"
       id="path387" />
    <path
       style="fill:#ffffff;stroke-width:0.118959"
       d="M 4.6988848,30.453532 V 3.9851301 l 15.0185872,5.613e-4 15.018587,5.613e-4 5.103186,4.9065019 5.103184,4.9065024 -3.556716,0.03177 c -2.306599,0.0206 -3.784789,-0.01549 -4.205605,-0.102709 -0.795441,-0.164855 -1.225141,-0.581162 -1.427331,-1.38284 C 35.640365,11.899773 35.158965,8.4085163 35.15359,8 35.152945,7.950929 35.10155,7.910781 35.039391,7.910781 c -0.06883,0 -0.105237,1.127887 -0.09311,2.884758 0.0164,2.37461 -0.01601,3.027207 -0.183248,3.690269 -0.625343,2.479337 -2.008794,3.45166 -5.64913,3.970348 -1.208808,0.172235 -2.467323,0.195862 -9.366694,0.175852 C 9.5930145,18.602558 9.5682798,18.606048 7.979152,20.290603 5.5505878,22.86501 5.5593447,25.493844 8.01386,30.709919 c 0.9848387,2.092875 1.1674282,2.706748 0.9768497,3.284207 -0.073516,0.222754 -0.5628521,0.881553 -1.0874139,1.463996 -1.3439438,1.492235 -1.369472,1.709471 -0.2987792,2.542503 0.8175836,0.636104 0.935999,0.839524 0.4887055,0.839524 -1.1408681,0 -1.7124591,1.359581 -1.3316358,3.167416 0.2099657,0.996744 0.6377481,1.893917 1.1448179,2.400987 0.9484967,0.948497 3.7898478,1.433138 9.8779798,1.684862 3.518646,0.145483 6.18049,0.315826 7.613383,0.487211 1.359042,0.162553 2.736059,0.459586 2.736059,0.590191 0,0.231974 -1.670155,0.5008 -4.401487,0.708456 -0.817844,0.06218 -4.243866,0.171083 -7.613383,0.24201 -3.369517,0.07093 -6.5278808,0.172144 -7.0185872,0.224926 l -0.8921933,0.09597 0.8516542,0.01683 c 2.5753813,0.05089 11.2818693,0.391464 12.7096843,0.497161 4.483228,0.331883 7.193679,0.845802 7.785976,1.476272 l 0.266244,0.283406 -0.278898,0.173678 c -0.868189,0.540646 -3.097117,0.725905 -16.675139,1.385963 -2.540608,0.123504 -4.6506456,0.25591 -4.6889712,0.294237 -0.038326,0.03832 0.5414696,0.06976 1.2884336,0.06985 0.7469636,9.5e-5 4.2488226,0.05378 7.7819086,0.11931 11.611295,0.215344 13.841174,0.425665 15.881041,1.497884 0.584927,0.307458 3.089059,2.145795 3.547732,2.604468 0.03338,0.03338 -7.148229,0.06069 -15.959132,0.06069 H 4.6988848 Z M 26.973978,16.517269 c 0.441635,-0.04171 0.802974,-0.116631 0.802974,-0.166492 0,-0.190882 -2.50395,-0.290169 -7.315985,-0.290096 -4.931997,7.5e-5 -7.553904,0.104482 -7.553904,0.300804 0,0.05537 0.227509,0.121163 0.505576,0.146207 0.888505,0.08003 12.726879,0.08839 13.561339,0.0096 z m 0.550261,-4.051644 c 0.733714,-0.175748 -0.334745,-0.290594 -3.544431,-0.380981 -3.368647,-0.09487 -10.123526,0.01518 -10.761558,0.175313 -0.640585,0.160777 -0.131513,0.232038 2.166798,0.303315 2.610096,0.08095 11.698813,0.0078 12.139191,-0.09765 z"
       id="path389" />
    <g
       id="g323">
      <g
         id="g318">
        <g
           id="g314">
          <path
             d="m 46.305509,52.417737 -7.46453,-1.04332 0.126016,-0.901592 q 0.363736,0.02303 0.743123,0.04825 0.395036,0.0274 0.688178,-0.01523 0.455351,-0.06168 0.700792,-0.33378 0.262999,-0.283571 0.331734,-0.775343 l 1.162773,-8.319155 q 0.0611,-0.437131 -0.123993,-0.825109 -0.167533,-0.399451 -0.540037,-0.702206 -0.274419,-0.205483 -0.822505,-0.393506 -0.546178,-0.20168 -1.011825,-0.294628 l 0.124105,-0.887923 5.487826,0.460637 0.192355,0.221867 -1.535089,10.982928 q -0.06683,0.478117 0.0927,0.820726 0.17517,0.344814 0.607984,0.558512 0.327095,0.171041 0.644264,0.298962 0.31907,0.1143 0.72213,0.198445 z m 0.676455,-19.222499 q -0.108831,0.778639 -0.78559,1.282919 -0.6592,0.492807 -1.519891,0.372508 -0.798094,-0.11155 -1.31638,-0.74108 -0.500729,-0.641004 -0.401445,-1.351342 0.105013,-0.751318 0.762305,-1.230465 0.672941,-0.476957 1.471034,-0.365407 0.891989,0.124673 1.380887,0.736167 0.506455,0.600022 0.40908,1.2967 z"
             style="font-size:16px;font-family:Georgia;-inkscape-font-specification:Georgia;white-space:pre;fill:#ffd42a;stroke-width:1.88966"
             id="path198" />
        </g>
      </g>
    </g>
  </g>
</svg>
