<?xml version="1.0" encoding="utf-8"?>
<!-- Generator: Adobe Illustrator 16.0.3, SVG Export Plug-In . SVG Version: 6.00 Build 0)  -->
<!DOCTYPE svg PUBLIC "-//W3C//DTD SVG 1.1//EN" "http://www.w3.org/Graphics/SVG/1.1/DTD/svg11.dtd">
<svg version="1.1" id="Layer_1" xmlns="http://www.w3.org/2000/svg" xmlns:xlink="http://www.w3.org/1999/xlink" x="0px" y="0px"
	 width="792px" height="612px" viewBox="0 0 792 612" enable-background="new 0 0 792 612" xml:space="preserve">
<g>
	<path fill="#222323" d="M110.79,269.651l102.967,170.548l8.975,10.392l78.406-34.007l95.845-38.731l18.773-1.888l25.662,1.416
		l21.609-8.503L493.139,354l177.207-20.979c0,0,18.217-1.93,7.473-15.391l-34.48-27.395L642.59,278.9L475.779,161.409
		c0,0-62.594,0.708-95.527,3.07c0,0-24.915,1.771-38.258,7.912c-2.41,1.109-15.587,4.723-32.591,27.395
		c0,0-44.672-23.696-77.263-13.304c0,0-50.502,16.138-104.168,53.867c-8.272,5.815-10.008,17.137-9.94,27.295L110.79,269.651z"/>
	<path fill="#FFFFFF" d="M130.852,242.294c0,0-14.352,16.768-9.707,23.853l103.912,165.472c0,0,7.557-29.835,3.385-38.572
		L130.852,242.294z"/>
	<path fill="#FFFFFF" d="M232.73,396.076c0,0-8.383,42.155-2.36,39.202c0,0,104.502-73.209,189.757-69.549
		c0,0,21.314-33.005,16.412-40.03c0,0-53.41-12.084-139.217,34.48L232.73,396.076z"/>
	<path fill="#FFFFFF" d="M435.949,343.057c0,0,29.641-14.352,32.119,9.447c0,0,27.158-32.354,176.887-33.063
		c0,0-6.141-29.282-6.141-39.203c0,0-152.09-7.084-186.57,38.258"/>
	<path fill="#FFFFFF" d="M311.965,201.832c34.243,29.285,96.354,102.147,131.424,122.458c0,0,4.389-53.541,190.072-47.514
		c0,0-118.217-88.677-160.748-113.359c0,0-89.191-2.007-129.104,10.785C343.609,174.201,306,196.731,311.965,201.832z"/>
	<path fill="#FFFFFF" d="M232.613,393.124c0,0,115.72-81.713,199.637-70.691c0,0-108.084-107.888-133.826-124.143
		c0,0-46.008-34.579-127.213,19.837l-36.605,21.255L232.613,393.124z"/>
</g>
</svg>
